# xmcd
# 
# Track frame offsets:
#     150
#     18360
#     36925
#     59118
#     77045
#     98860
#     116107
#     133107
#     151900
#     166340
#     198213
# 
# Disc length: 3074
# 
# Revision: 6
# Processed by: cddbd v1.5.2PL0 Copyright (c) Steve Scherf et al.
# Submitted via: fre:ac v1.0.17
# 
DISCID=910c000b
DTITLE=Mónica Naranjo - Mónica Naranjo
DYEAR=1994
DGENRE=Vocal
TTITLE0=El Amor Coloca
TTITLE1=Sola
TTITLE2=Óyeme!
TTITLE3=Supernatural
TTITLE4=Dame Tu Calor
TTITLE5=Fuego De Pasión
TTITLE6=Llorando Bajo La Lluvia
TTITLE7=Sólo Se Vive Una Vez
TTITLE8=Hoy La Luna Sale Para Mi
TTITLE9=Amor Es Sólo Amar
TTITLE10=Megamix (Sola, El Amor Coloca, Sólo Se Vive Una Vez)
EXTD=YEAR: 1994
EXTT0=
EXTT1=
EXTT2=
EXTT3=
EXTT4=
EXTT5=
EXTT6=
EXTT7=
EXTT8=
EXTT9=
EXTT10=
PLAYORDER=
